<svg xmlns="http://www.w3.org/2000/svg" width="1200" height="630" viewBox="0 0 1200 630">
  <rect width="1200" height="630" fill="#FFFFFF"/>
  <rect x="0" y="0" width="1200" height="10" fill="#1A1A1A"/>
  <rect x="0" y="620" width="1200" height="10" fill="#1A1A1A"/>

  <!-- compass-star mark -->
  <g transform="translate(80,86)">
    <rect width="72" height="72" rx="18" fill="#1A1A1A"/>
    <path d="M36 10 L42.2 29.8 L62 36 L42.2 42.2 L36 62 L29.8 42.2 L10 36 L29.8 29.8 Z" fill="#FFFFFF"/>
    <path d="M29.8 29.8 L36 10 L42.2 29.8 Z" fill="#2F6DA6"/>
  </g>
  <text x="172" y="132" font-family="Arial, sans-serif" font-size="26" font-weight="700" letter-spacing="0.5" fill="#1A1A1A">CPA Field Guide</text>
  <text x="172" y="160" font-family="Arial, sans-serif" font-size="18" fill="#8C8C88">Independent · vendor-neutral · no pay-to-list</text>

  <!-- headline -->
  <text x="80" y="330" font-family="Georgia, 'Times New Roman', serif" font-size="88" font-weight="600" fill="#1A1A1A">The software US</text>
  <text x="80" y="428" font-family="Georgia, 'Times New Roman', serif" font-size="88" font-weight="600" fill="#1A1A1A">CPA firms run on.</text>

  <text x="80" y="488" font-family="Arial, sans-serif" font-size="28" fill="#565654">Tax prep · Deadlines &amp; monitoring · Practice management · Bookkeeping</text>

  <!-- openness legend -->
  <g font-family="Arial, sans-serif" font-size="22" fill="#565654">
    <circle cx="92" cy="556" r="9" fill="#1E7F57"/><text x="112" y="563">Open API</text>
    <circle cx="316" cy="556" r="9" fill="#9A6206"/><text x="336" y="563">Gated</text>
    <circle cx="486" cy="556" r="9" fill="#4A4A9A"/><text x="506" y="563">Zapier</text>
    <circle cx="676" cy="556" r="9" fill="#6B6B66"/><text x="696" y="563">No public API</text>
  </g>

  <text x="1120" y="563" text-anchor="end" font-family="Arial, sans-serif" font-size="22" font-weight="700" fill="#1A1A1A">25 tools · 4 categories</text>
</svg>
