<svg xmlns="http://www.w3.org/2000/svg" viewBox="0 0 18.08 18.09" role="img" aria-label="QuickBooks">
  <path fill="#2ca01c" d="m9.04,18.09c4.99,0,9.04-4.05,9.04-9.04S14.04,0,9.04,0,0,4.05,0,9.04s4.05,9.04,9.04,9.04Z"/>
  <path fill="#fff" d="m2.53,9.04c0,1.91,1.56,3.44,3.5,3.44h.5v-1.28h-.5c-1.2,0-2.2-.98-2.2-2.16s1-2.16,2.2-2.16h1.2v6.68c0,.69.6,1.28,1.3,1.28V5.6h-2.51c-1.95,0-3.5,1.52-3.5,3.44h0Zm9.52-3.44h-.5v1.28h.5c1.2,0,2.2.98,2.2,2.16s-1,2.16-2.2,2.16h-1.2v-6.68c0-.69-.6-1.28-1.3-1.28v9.24h2.51c1.95,0,3.5-1.52,3.5-3.44s-1.56-3.44-3.5-3.44h0Z"/>
</svg>
