<svg width="1165" height="154" viewBox="0 0 1165 154" fill="none" xmlns="http://www.w3.org/2000/svg" role="img" aria-label="DueDateHQ">
<title>DueDateHQ</title>
<path d="M188.642 139.776V2.304H234.914C255.906 2.304 272.738 8.576 285.41 21.12C298.146 33.6 304.514 50.208 304.514 70.944C304.514 91.616 298.114 108.256 285.314 120.864C272.578 133.472 255.778 139.776 234.914 139.776H188.642ZM209.666 120.768H234.338C249.25 120.768 261.058 116.352 269.762 107.52C278.53 98.688 282.914 86.624 282.914 71.328V71.232C282.914 55.872 278.594 43.744 269.954 34.848C261.314 25.952 249.442 21.504 234.338 21.504H209.666V120.768Z" fill="#1F315C"/>
<path d="M349.055 142.08C337.791 142.08 329.023 138.752 322.751 132.096C316.479 125.376 313.343 116.192 313.343 104.544V39.84H333.311V99.84C333.311 107.84 335.135 113.952 338.783 118.176C342.431 122.4 347.807 124.512 354.911 124.512C362.463 124.512 368.607 121.824 373.343 116.448C378.143 111.008 380.543 104.256 380.543 96.192V39.84H400.607V139.776H381.215V115.392L390.815 124.992H381.023C377.951 130.24 373.631 134.4 368.063 137.472C362.559 140.544 356.223 142.08 349.055 142.08Z" fill="#1F315C"/>
<path d="M461.27 142.08C446.55 142.08 434.23 137.152 424.31 127.296C414.454 117.44 409.526 104.928 409.526 89.76C409.526 74.656 414.422 62.176 424.214 52.32C434.07 42.464 446.166 37.536 460.502 37.536C475.094 37.536 486.87 42.048 495.83 51.072C504.854 60.032 509.366 71.36 509.366 85.056V94.368H419.99V80.544H489.878C489.494 73.12 486.646 66.976 481.334 62.112C476.022 57.184 469.11 54.72 460.598 54.72C451.638 54.72 444.086 57.984 437.942 64.512C431.798 71.04 428.726 79.488 428.726 89.856C428.726 100.416 431.99 108.96 438.518 115.488C445.11 121.952 452.95 125.184 462.038 125.184C466.582 125.184 470.55 124.544 473.942 123.264C477.398 121.984 480.502 120.16 483.254 117.792C486.006 115.36 488.918 111.744 491.99 106.944L507.158 114.816C503.446 121.728 499.446 127.072 495.158 130.848C490.87 134.56 486.006 137.376 480.566 139.296C475.19 141.152 468.758 142.08 461.27 142.08Z" fill="#1F315C"/>
<path d="M519.602 139.776V2.304H565.874C586.866 2.304 603.698 8.576 616.37 21.12C629.106 33.6 635.474 50.208 635.474 70.944C635.474 91.616 629.074 108.256 616.274 120.864C603.538 133.472 586.738 139.776 565.874 139.776H519.602ZM540.626 120.768H565.298C580.21 120.768 592.018 116.352 600.722 107.52C609.49 98.688 613.874 86.624 613.874 71.328V71.232C613.874 55.872 609.554 43.744 600.914 34.848C592.274 25.952 580.402 21.504 565.298 21.504H540.626V120.768Z" fill="#1F315C"/>
<path d="M677.231 142.08C666.287 142.08 657.295 139.136 650.255 133.248C643.279 127.296 639.791 119.488 639.791 109.824C639.791 99.776 643.663 91.776 651.407 85.824C659.215 79.808 669.359 76.8 681.839 76.8C686.831 76.8 691.855 77.344 696.911 78.432C701.967 79.456 706.287 80.896 709.871 82.752V76.704C709.871 69.664 707.439 64.16 702.575 60.192C697.711 56.224 691.759 54.24 684.719 54.24C680.879 54.24 677.487 54.72 674.543 55.68C671.663 56.576 669.071 57.824 666.767 59.424C664.463 61.024 662.223 62.912 660.047 65.088C657.871 67.2 656.783 68.256 656.783 68.256L643.247 57.216C643.247 57.216 644.687 55.776 647.567 52.896C650.511 49.952 653.839 47.296 657.551 44.928C661.263 42.56 665.423 40.736 670.031 39.456C674.703 38.176 680.271 37.536 686.735 37.536C699.663 37.536 710.031 40.992 717.839 47.904C725.647 54.752 729.551 64.128 729.551 76.032V139.776H710.255V118.368L715.343 124.608H710.063C706.671 130.176 702.095 134.496 696.335 137.568C690.575 140.576 684.207 142.08 677.231 142.08ZM681.071 125.952C689.647 125.952 696.591 122.944 701.903 116.928C707.215 110.848 709.871 104.448 709.871 97.728V96.96C706.927 95.04 703.215 93.504 698.735 92.352C694.319 91.2 689.615 90.624 684.623 90.624C676.943 90.624 670.863 92.192 666.383 95.328C661.903 98.4 659.663 102.912 659.663 108.864C659.663 114.176 661.615 118.368 665.519 121.44C669.487 124.448 674.671 125.952 681.071 125.952Z" fill="#1F315C"/>
<path d="M772.533 142.08C764.533 142.08 758.005 139.808 752.949 135.264C747.957 130.656 745.461 123.392 745.461 113.472V14.208H765.429V111.072C765.429 116.128 766.421 119.712 768.405 121.824C770.389 123.936 773.237 124.992 776.949 124.992C778.421 124.992 779.829 124.896 781.173 124.704C782.581 124.448 784.245 124.032 786.165 123.456C788.085 122.88 789.045 122.592 789.045 122.592V139.104C789.045 139.104 787.989 139.424 785.877 140.064C783.829 140.704 781.685 141.184 779.445 141.504C777.269 141.888 774.965 142.08 772.533 142.08ZM729.525 56.64V39.84H789.237V56.64H729.525Z" fill="#1F315C"/>
<path d="M843.05 142.08C828.33 142.08 816.01 137.152 806.09 127.296C796.234 117.44 791.306 104.928 791.306 89.76C791.306 74.656 796.202 62.176 805.994 52.32C815.85 42.464 827.946 37.536 842.282 37.536C856.874 37.536 868.65 42.048 877.61 51.072C886.634 60.032 891.146 71.36 891.146 85.056V94.368H801.77V80.544H871.658C871.274 73.12 868.426 66.976 863.114 62.112C857.802 57.184 850.89 54.72 842.378 54.72C833.418 54.72 825.866 57.984 819.722 64.512C813.578 71.04 810.506 79.488 810.506 89.856C810.506 100.416 813.77 108.96 820.298 115.488C826.89 121.952 834.73 125.184 843.818 125.184C848.362 125.184 852.33 124.544 855.722 123.264C859.178 121.984 862.282 120.16 865.034 117.792C867.786 115.36 870.698 111.744 873.77 106.944L888.938 114.816C885.226 121.728 881.226 127.072 876.938 130.848C872.65 134.56 867.786 137.376 862.346 139.296C856.97 141.152 850.538 142.08 843.05 142.08Z" fill="#1F315C"/>
<path d="M990.278 139.776V2.304H1011.3V139.776H990.278ZM901.382 139.776V2.304H922.406V139.776H901.382ZM912.422 79.68V60.096H1000.55V79.68H912.422Z" fill="#1F315C"/>
<path d="M1094.22 142.08C1074.06 142.08 1057.29 135.328 1043.92 121.824C1030.6 108.32 1023.95 91.392 1023.95 71.04C1023.95 50.688 1030.6 33.76 1043.92 20.256C1057.29 6.752 1074.06 0 1094.22 0C1114.25 0 1130.99 6.784 1144.43 20.352C1157.93 33.856 1164.68 50.752 1164.68 71.04C1164.68 91.136 1157.96 108 1144.52 121.632C1131.08 135.264 1114.32 142.08 1094.22 142.08ZM1094.22 122.112C1108.49 122.112 1120.24 117.28 1129.45 107.616C1138.73 97.888 1143.37 85.696 1143.37 71.04C1143.37 56.256 1138.73 44.064 1129.45 34.464C1120.17 24.8 1108.43 19.968 1094.22 19.968C1079.95 19.968 1068.2 24.8 1058.99 34.464C1049.77 44.128 1045.16 56.32 1045.16 71.04C1045.16 85.76 1049.74 97.952 1058.89 107.616C1068.11 117.28 1079.88 122.112 1094.22 122.112ZM1140.01 153.024L1102.96 99.648L1119.08 89.184L1156.33 142.464L1140.01 153.024Z" fill="#1F315C"/>
<rect y="2.25586" width="137" height="137" rx="27.4" fill="#1F315C"/>
<rect x="23.9751" y="33.7656" width="87.6403" height="14.2902" rx="4.3155" fill="#F2F4ED"/>
<rect x="23.9751" y="55.333" width="87.6403" height="14.2902" rx="4.3155" fill="#F2F4ED"/>
<rect x="23.9751" y="97.1455" width="87.6403" height="14.2902" rx="4.3155" fill="#F2F4ED"/>
<rect width="87.4502" height="14.29" rx="4.3155" transform="matrix(0.99909 -0.0426613 0.0421964 0.999109 36.3047 78.2344)" fill="#F2F4ED"/>
</svg>
