<svg xmlns="http://www.w3.org/2000/svg" viewBox="0 0 1000 1293.9" role="img" aria-label="Utah counties" data-state="UT" data-count="29"><title>Utah</title><g fill="var(--icon-off,#D6D4CB)" stroke="none"><path id="c49001" data-county="Beaver" d="M0.6,996.3 0.6,886.6 306.8,886.6 306.0,911.0 342.7,948.6 333.6,969.9 338.3,976.6 321.0,996.0 0.6,996.3Z"/><path id="c49003" data-county="Box Elder" d="M2.2,259.0 2.3,2.0 377.9,0.9 407.9,53.5 399.3,78.0 410.3,114.8 422.2,116.6 434.9,133.6 426.2,139.1 431.0,150.9 417.9,146.8 417.0,164.5 407.9,170.1 362.1,172.0 311.1,239.1 250.1,259.0 2.2,259.0Z"/><path id="c49005" data-county="Cache" d="M376.5,1.4 507.8,0.6 515.1,19.0 507.1,24.1 507.8,38.6 517.1,47.4 529.0,89.9 507.2,149.6 465.3,148.5 460.2,163.4 435.8,155.9 426.2,139.1 434.4,132.4 421.5,116.2 412.8,120.4 399.3,78.0 407.9,53.5 376.5,1.4Z"/><path id="c49007" data-county="Carbon" d="M559.8,565.9 832.0,567.7 833.8,573.0 823.0,569.8 818.6,590.1 810.1,585.4 814.5,592.6 799.0,638.3 803.9,654.8 592.9,655.3 582.8,617.4 575.1,620.1 559.8,594.0 559.8,565.9Z"/><path id="c49009" data-county="Daggett" d="M808.5,259.7 998.2,258.8 998.5,346.3 976.1,340.8 967.9,295.6 929.5,295.7 929.5,313.1 911.6,326.1 902.5,303.6 834.6,320.0 808.5,307.2 808.5,259.7Z"/><path id="c49011" data-county="Davis" d="M311.1,239.1 372.4,219.4 438.3,223.1 441.9,252.9 454.5,269.5 446.5,270.1 461.7,294.9 420.4,305.1 417.9,279.2 408.3,279.2 357.7,318.7 311.1,239.1Z"/><path id="c49013" data-county="Duchesne" d="M630.8,543.5 630.6,329.6 647.7,333.6 658.9,324.3 733.1,314.0 750.2,302.1 813.4,308.2 813.3,567.7 637.5,565.9 637.5,543.5 630.8,543.5Z"/><path id="c49015" data-county="Emery" d="M548.1,905.5 549.1,655.4 559.7,655.4 559.8,594.0 575.1,620.1 582.8,617.4 592.9,655.3 805.5,658.2 804.4,684.9 793.3,704.0 798.0,716.7 777.4,767.1 778.7,776.9 800.5,777.8 807.9,789.1 779.2,781.4 781.7,795.2 772.9,799.9 792.4,839.6 784.1,851.7 791.1,850.2 789.9,862.5 801.5,865.6 795.2,876.8 809.1,875.9 797.0,884.3 811.1,889.0 809.7,899.2 799.6,901.7 803.6,905.5 548.1,905.5Z"/><path id="c49017" data-county="Garfield" d="M272.1,1085.0 294.2,1085.3 292.2,1063.1 316.2,1063.1 315.2,996.3 823.2,996.2 803.4,1009.7 793.0,1035.2 781.5,1033.4 768.4,1048.5 767.0,1062.1 754.9,1061.2 752.1,1069.4 728.0,1065.5 721.6,1084.3 713.5,1086.5 723.6,1093.1 709.3,1124.8 696.8,1127.5 679.6,1153.5 273.2,1152.7 272.1,1085.0Z"/><path id="c49019" data-county="Grand" d="M772.9,799.9 781.7,795.2 779.2,781.4 807.9,789.1 800.5,777.8 778.7,776.9 777.4,767.1 798.0,716.7 793.2,704.6 804.9,682.4 803.9,654.8 986.9,656.7 997.9,647.5 996.2,905.5 801.4,904.5 811.1,889.0 797.0,884.3 809.1,875.9 795.2,876.8 801.5,865.6 789.9,862.5 791.1,850.2 784.1,851.7 792.4,839.6 772.9,799.9Z"/><path id="c49021" data-county="Iron" d="M0.1,1136.9 0.6,996.3 314.1,996.6 316.2,1063.1 292.2,1063.1 294.2,1085.3 272.1,1085.0 273.2,1152.7 229.8,1152.8 229.9,1164.0 202.7,1164.1 202.7,1170.6 159.5,1168.6 159.5,1156.5 115.5,1156.5 115.4,1133.5 0.1,1136.9Z"/><path id="c49023" data-county="Juab" d="M1.0,635.8 1.2,541.9 341.4,542.3 343.3,529.8 355.7,533.4 373.7,514.6 398.9,545.2 391.7,574.0 415.7,567.5 444.7,531.1 462.6,554.7 456.2,566.5 481.1,566.0 492.4,573.4 492.5,584.8 466.0,596.6 466.9,657.1 460.0,657.2 460.1,677.2 425.1,677.5 418.0,689.1 399.0,694.9 371.9,691.0 367.3,632.9 1.0,635.8Z"/><path id="c49025" data-county="Kane" d="M230.2,1293.2 229.8,1152.8 679.6,1153.5 675.4,1164.8 681.1,1167.0 659.5,1174.8 669.0,1181.3 658.3,1188.9 661.8,1203.9 648.1,1210.3 634.4,1203.9 641.3,1215.9 617.8,1260.8 574.0,1266.6 561.4,1275.6 560.6,1287.8 549.3,1276.1 548.0,1290.1 535.0,1292.9 230.2,1293.2Z"/><path id="c49027" data-county="Millard" d="M0.6,886.6 1.0,635.8 367.3,632.9 371.9,691.0 406.4,694.8 405.8,777.2 382.9,786.7 375.4,807.6 364.8,811.1 366.0,846.7 347.8,859.9 316.6,860.5 309.2,887.0 0.6,886.6Z"/><path id="c49029" data-county="Morgan" d="M434.6,214.2 449.5,202.9 472.5,212.3 491.1,196.8 509.9,200.3 530.1,162.5 550.3,173.7 557.3,183.3 552.8,200.5 565.0,204.0 557.1,221.2 536.0,225.4 533.2,236.5 507.8,242.7 490.9,260.7 492.8,269.1 504.4,271.0 513.4,295.3 498.5,315.9 455.8,292.0 446.4,270.0 454.4,269.0 441.9,252.9 434.6,214.2Z"/><path id="c49031" data-county="Piute" d="M342.7,948.6 306.2,902.8 456.2,904.9 439.8,924.9 440.9,995.6 419.3,997.0 321.0,996.0 338.3,976.6 333.6,969.9 342.7,948.6Z"/><path id="c49033" data-county="Rich" d="M507.1,24.1 515.1,19.0 507.8,0.6 599.8,0.0 599.9,194.0 562.7,222.1 556.3,221.8 564.9,203.7 552.8,200.5 557.3,183.3 550.3,173.7 520.2,164.1 507.2,150.2 529.0,89.9 507.1,24.1Z"/><path id="c49035" data-county="Salt Lake" d="M357.7,318.7 417.9,279.2 420.4,305.1 476.7,297.8 498.8,360.0 417.6,409.4 402.0,397.5 387.3,404.1 375.1,396.8 370.0,337.2 357.7,318.7Z"/><path id="c49037" data-county="San Juan" d="M526.7,1292.9 548.0,1290.1 549.3,1276.1 561.4,1287.6 561.4,1275.6 574.0,1266.6 617.8,1260.8 641.3,1215.9 634.4,1203.9 648.1,1210.3 661.8,1203.9 658.3,1188.9 669.0,1181.3 659.5,1174.8 680.9,1167.7 676.2,1159.3 689.0,1146.3 688.2,1137.6 709.3,1124.8 723.6,1093.1 713.5,1086.5 721.6,1084.3 728.0,1065.5 752.1,1069.4 754.9,1061.2 767.0,1062.1 768.4,1048.5 781.5,1033.4 793.0,1035.2 803.4,1009.7 831.3,987.3 824.5,977.6 830.9,975.6 827.6,965.6 821.7,967.1 816.0,952.1 820.5,943.4 802.2,934.9 808.0,927.8 799.8,918.6 806.5,918.5 803.6,905.5 996.2,905.5 999.2,1293.6 526.7,1292.9Z"/><path id="c49039" data-county="Sanpete" d="M406.5,689.1 418.0,689.1 425.1,677.5 460.1,677.2 460.0,657.2 466.9,657.1 466.0,596.6 492.5,584.8 492.4,573.4 481.1,566.0 559.8,565.9 559.7,655.4 549.1,655.4 549.4,767.8 406.8,764.4 406.5,689.1Z"/><path id="c49041" data-county="Sevier" d="M305.4,899.9 316.6,860.5 347.8,859.9 366.0,846.7 364.8,811.1 375.4,807.6 382.9,786.7 405.8,777.2 406.8,764.4 549.4,767.8 548.2,902.8 305.4,899.9Z"/><path id="c49043" data-county="Summit" d="M479.9,316.9 486.8,307.9 503.9,314.4 513.2,296.6 504.4,271.0 491.8,267.8 501.2,247.3 533.2,236.5 536.0,225.4 562.7,222.1 596.8,194.1 599.8,259.5 808.5,259.7 808.5,307.2 750.2,302.1 733.1,314.0 658.9,324.3 647.7,333.6 630.6,329.6 614.0,364.2 585.0,364.9 578.9,375.8 534.3,354.0 530.6,339.1 522.0,340.2 511.5,362.6 498.8,360.0 479.9,316.9Z"/><path id="c49045" data-county="Tooele" d="M1.2,541.9 2.2,259.0 250.1,259.0 311.1,239.1 369.6,335.8 375.4,395.8 366.9,400.6 379.5,490.4 373.7,514.6 355.7,533.4 343.3,529.8 341.4,542.3 1.2,541.9Z"/><path id="c49047" data-county="Uintah" d="M799.2,638.0 814.5,592.6 810.1,585.4 818.6,590.1 823.0,569.8 833.8,573.0 832.0,567.7 813.3,567.7 813.4,308.2 835.1,320.0 902.5,303.6 911.6,326.1 929.5,313.1 929.5,295.7 967.9,295.6 976.1,340.8 998.5,346.3 997.9,647.5 986.9,656.7 818.0,656.8 803.9,654.8 799.2,638.0Z"/><path id="c49049" data-county="Utah" d="M367.1,399.9 402.0,397.5 417.6,409.4 457.0,380.8 490.6,368.4 494.5,391.7 485.2,401.3 498.4,423.8 513.3,423.9 520.5,442.5 547.7,444.2 564.2,474.4 561.6,507.6 568.5,504.9 583.0,531.2 592.6,532.3 592.6,543.4 637.5,543.5 637.5,565.9 456.2,566.5 462.6,554.7 444.7,531.1 415.7,567.5 391.7,574.0 398.9,545.2 373.7,514.6 379.5,489.8 374.9,477.7 380.8,472.8 371.3,449.2 374.6,430.8 367.1,399.9Z"/><path id="c49051" data-county="Wasatch" d="M485.3,400.9 494.5,391.7 490.6,368.4 501.4,359.0 512.3,362.0 522.0,340.2 578.9,375.8 585.0,364.9 614.0,364.2 620.2,343.7 628.7,341.2 630.8,543.5 592.6,543.4 592.6,532.3 583.0,531.2 568.5,504.9 560.0,505.3 564.2,474.4 553.5,450.6 519.0,441.7 518.7,429.6 498.4,423.8 485.3,400.9Z"/><path id="c49053" data-county="Washington" d="M0.0,1140.0 115.4,1133.5 115.5,1156.5 159.5,1156.5 159.5,1168.6 229.9,1164.0 230.2,1293.2 0.5,1293.2 0.0,1140.0Z"/><path id="c49055" data-county="Wayne" d="M439.8,924.9 458.2,902.8 803.6,905.5 806.5,918.5 799.8,918.6 808.0,927.8 802.2,934.9 820.5,943.4 816.0,952.1 821.7,967.1 827.6,965.6 830.9,975.6 824.5,977.6 831.6,986.1 823.0,995.5 440.9,995.6 439.8,924.9Z"/><path id="c49057" data-county="Weber" d="M311.1,239.1 362.1,172.0 404.0,172.0 417.0,164.5 417.9,146.8 457.4,163.6 467.4,156.4 465.3,148.5 507.2,149.6 525.2,165.6 509.9,200.3 491.1,196.8 472.5,212.3 449.5,202.9 435.0,210.5 437.3,223.5 372.4,219.4 311.1,239.1Z"/></g></svg>